# xmcd
# 
# Track frame offsets:
#     150
#     13383
#     28558
#     41578
#     56389
#     69405
#     84646
#     97709
#     112790
#     131239
#     147259
#     164741
# 
# Disc length: 2432
# 
# Revision: 0
# Processed by: cddbd v1.5.2PL0 Copyright (c) Steve Scherf et al.
# Submitted via: fre:ac v1.0.17
# 
DISCID=9d097e0c
DTITLE=Joey and Rory - Album Number Two
DYEAR=2010
DGENRE=Country
TTITLE0=Album Number Two
TTITLE1=That's Important To Me
TTITLE2=All You Need Is Me
TTITLE3=Born To Be Your Woman
TTITLE4=Baby I'll Come Back To You
TTITLE5=God Help My Man
TTITLE6=The Horse Nobody Could Ride
TTITLE7=Farm To Fame
TTITLE8=Where Jesus Is
TTITLE9=You Ain't Right
TTITLE10=My Ol' Man
TTITLE11=This Song's For You (Featuring Zac Brown Band)
EXTD=
EXTT0=
EXTT1=
EXTT2=
EXTT3=
EXTT4=
EXTT5=
EXTT6=
EXTT7=
EXTT8=
EXTT9=
EXTT10=
EXTT11=
PLAYORDER=
